<svg width="133" height="33" viewBox="0 0 133 33" fill="none" xmlns="http://www.w3.org/2000/svg">
<g clip-path="url(#clip0)">
<path d="M5.73109 6.97476H0V32.8969H5.73109V6.97476Z" fill="black"/>
<path d="M0 0.0670166V4.66016H9.56214L13.0137 8.1063V32.8814H18.7629V6.95931L11.8623 0.0670166H0Z" fill="black"/>
<path d="M14.542 0.082489L19.1424 4.67563H22.5939L26.0429 8.12435V32.8969H31.7946V6.97478L24.8941 0.082489H14.542Z" fill="black"/>
<path d="M27.628 0.0850665L32.0993 4.68079L44.8109 4.67563V0.082489L27.628 0.0850665Z" fill="black"/>
<path d="M44.811 6.97476H39.085V32.8969H44.811V6.97476Z" fill="black"/>
<path d="M51.8121 0.60313C51.8121 0.159796 52.1787 -0.0386732 52.9119 0.00772217C53.0874 0.0231873 53.2346 0.0309199 53.3482 0.0309199H53.5934L57.1095 7.99546L60.6437 0.0360751H60.7702H61.7331C61.8581 0.0301514 61.9822 0.0590836 62.0917 0.11963C62.2011 0.180177 62.2915 0.269948 62.3527 0.378886C62.3987 0.446498 62.4231 0.526521 62.4224 0.608285V14.6661H60.3055V5.60868L58.1086 10.8307H56.1234L53.9213 6.08809V14.6661H51.8121V0.60313Z" fill="black"/>
<path d="M70.5079 12.2613C70.5062 12.5901 70.4288 12.9141 70.2815 13.2082C70.1342 13.5024 69.9211 13.7587 69.6586 13.9573C69.1494 14.3865 68.5023 14.618 67.836 14.6094H66.3567C65.6814 14.617 65.0244 14.3901 64.498 13.9676C64.2257 13.7736 64.0036 13.5177 63.8501 13.2209C63.6966 12.9242 63.616 12.5953 63.6151 12.2613V5.81748C63.6193 5.48665 63.7014 5.16143 63.8547 4.86814C64.0081 4.57485 64.2285 4.32171 64.498 4.12921C65.0229 3.70282 65.6801 3.47225 66.3567 3.4771H67.836C68.5017 3.47238 69.1474 3.70344 69.6586 4.12921C69.9222 4.32675 70.1362 4.58283 70.2836 4.87719C70.431 5.17155 70.5078 5.49611 70.5079 5.82522V12.2613ZM68.5459 11.885V6.21442C68.5545 5.94663 68.4676 5.68449 68.3007 5.47467C68.2138 5.37017 68.1036 5.28733 67.9791 5.23275C67.8545 5.17816 67.7189 5.15333 67.583 5.16022H66.5013C66.3686 5.14922 66.2352 5.17125 66.1131 5.22433C65.9911 5.2774 65.8841 5.35988 65.8017 5.46436C65.6527 5.68176 65.5768 5.94081 65.5849 6.20411V11.8747C65.5768 12.1372 65.6527 12.3954 65.8017 12.6118C65.8826 12.7186 65.9891 12.8033 66.1113 12.8582C66.2335 12.9132 66.3677 12.9366 66.5013 12.9263H67.5907C67.7248 12.9366 67.8594 12.9156 67.984 12.8651C68.1085 12.8145 68.2196 12.7358 68.3084 12.635C68.4753 12.4216 68.5596 12.1554 68.5459 11.885V11.885Z" fill="black"/>
<path d="M79.1355 14.6558H77.1735V6.23762C77.1778 5.96832 77.0863 5.70623 76.9154 5.49787C76.8278 5.3956 76.7176 5.3151 76.5935 5.26276C76.4694 5.21041 76.3348 5.18766 76.2003 5.1963H74.7623C74.632 5.18604 74.501 5.20374 74.3782 5.2482C74.2553 5.29265 74.1433 5.36284 74.0498 5.45405C73.7918 5.68292 73.6349 6.00447 73.6135 6.34845V14.6558H71.6645L71.6516 0.0644531H73.6368V3.90238C73.7681 3.77297 73.9237 3.67081 74.0947 3.6018C74.2658 3.53278 74.4488 3.49828 74.6333 3.50029H76.4688C77.1369 3.49857 77.7839 3.7343 78.2939 4.16529C78.5569 4.36285 78.7705 4.61857 78.9179 4.91239C79.0652 5.2062 79.1424 5.53012 79.1433 5.85872L79.1355 14.6558Z" fill="black"/>
<path d="M86.1445 6.168C86.1445 5.52878 85.8347 5.20659 85.2151 5.20659H83.1266C83.0276 5.20118 82.9285 5.21727 82.8362 5.25375C82.744 5.29024 82.6607 5.34626 82.5922 5.41794C82.4621 5.56917 82.3915 5.76245 82.3935 5.9618H80.4186C80.4145 5.32092 80.6481 4.7012 81.0743 4.22197C81.2834 3.98068 81.5436 3.78872 81.836 3.65991C82.1284 3.5311 82.4457 3.46865 82.7652 3.47707H85.827C86.1363 3.46988 86.4432 3.53215 86.7252 3.6593C87.0071 3.78645 87.2569 3.97522 87.4559 4.21166C87.8713 4.68168 88.0927 5.29143 88.0755 5.91798V14.6661H86.16V14.2202C85.8189 14.5128 85.3883 14.6809 84.9389 14.697H83.0569C82.3817 14.7037 81.725 14.477 81.1982 14.0552C80.9295 13.8643 80.7095 13.613 80.5562 13.3215C80.4028 13.0299 80.3203 12.7065 80.3153 12.3772V10.1889C80.3166 9.85504 80.3974 9.52623 80.5509 9.22958C80.7044 8.93292 80.9262 8.67691 81.1982 8.48262C81.7235 8.05699 82.3804 7.82651 83.0569 7.8305H85.2823C85.5887 7.83084 85.8883 7.92041 86.1445 8.08825V6.168ZM86.1213 11.988V10.573C86.1285 10.3054 86.0417 10.0437 85.876 9.83324C85.7879 9.73076 85.6773 9.65 85.5529 9.59724C85.4284 9.54448 85.2933 9.52115 85.1583 9.52909H83.2092C83.0765 9.51682 82.9429 9.53773 82.8203 9.58993C82.6977 9.64213 82.5901 9.72397 82.5071 9.82808C82.3561 10.0447 82.2792 10.3041 82.2876 10.5678V11.988C82.2792 12.251 82.3562 12.5096 82.5071 12.7252C82.5888 12.8304 82.6957 12.9134 82.8179 12.9666C82.9402 13.0197 83.0739 13.0413 83.2067 13.0294H85.1558C85.2891 13.0363 85.4223 13.0124 85.545 12.9597C85.6676 12.907 85.7765 12.8267 85.8631 12.7252C86.0335 12.5175 86.1249 12.2565 86.1213 11.988V11.988Z" fill="black"/>
<path d="M95.766 4.30187C95.9018 4.05917 96.0999 3.85697 96.3399 3.71608C96.5799 3.57519 96.8532 3.50069 97.1316 3.50026H99.3131C99.9498 3.49041 100.565 3.73329 101.022 4.17557C101.258 4.38704 101.446 4.64685 101.572 4.9373C101.699 5.22775 101.761 5.54202 101.755 5.8587V14.6558H99.8036V6.23759C99.8103 5.97005 99.7236 5.7085 99.5583 5.49784C99.4701 5.39568 99.3594 5.3153 99.2349 5.26298C99.1104 5.21066 98.9755 5.18783 98.8406 5.19627H97.2917C96.907 5.19627 96.6592 5.45403 96.5456 5.98499C96.5164 6.10924 96.5008 6.23628 96.4992 6.36389V14.6558H94.5268V6.05459C94.5294 5.87225 94.4709 5.69429 94.3605 5.54903C94.2501 5.40377 94.0942 5.29955 93.9176 5.25298C93.807 5.21538 93.691 5.19622 93.5742 5.19627H91.8781C91.4186 5.19627 91.1914 5.73498 91.1914 6.8098V14.6558H89.2191V3.50026H90.9746V4.18846C91.1066 3.98141 91.2879 3.81021 91.5024 3.69013C91.7168 3.57005 91.9576 3.50482 92.2034 3.50026H94.2687C94.5665 3.49218 94.8614 3.56189 95.124 3.70248C95.3866 3.84307 95.6079 4.04968 95.766 4.30187V4.30187Z" fill="black"/>
<path d="M109.441 4.30189C109.576 4.05901 109.774 3.85666 110.014 3.71575C110.254 3.57483 110.528 3.50045 110.806 3.50029H112.985C113.3 3.49513 113.614 3.55212 113.907 3.668C114.2 3.78388 114.468 3.95637 114.694 4.1756C114.931 4.38663 115.119 4.64636 115.245 4.93691C115.372 5.22747 115.434 5.54195 115.427 5.85872V14.6558H113.468V6.23761C113.472 5.96831 113.381 5.70623 113.21 5.49786C113.122 5.39555 113.011 5.31505 112.886 5.26272C112.762 5.21039 112.627 5.18765 112.492 5.19629H110.943C110.561 5.19629 110.313 5.45405 110.197 5.98502C110.168 6.10926 110.152 6.2363 110.151 6.36391V14.6558H108.178V6.05461C108.181 5.87251 108.123 5.69459 108.013 5.54928C107.903 5.40397 107.748 5.29966 107.572 5.253C107.46 5.2154 107.343 5.19624 107.226 5.19629H105.553C105.093 5.19629 104.863 5.73414 104.863 6.80982V14.6558H102.901V3.50029H104.657V4.18848C104.788 3.98148 104.969 3.81025 105.183 3.69015C105.397 3.57005 105.638 3.50481 105.883 3.50029H107.948C108.245 3.49311 108.539 3.56325 108.801 3.7038C109.062 3.84435 109.283 4.05047 109.441 4.30189V4.30189Z" fill="black"/>
<path d="M122.449 6.168C122.449 5.52878 122.139 5.20659 121.52 5.20659H119.424C119.327 5.20312 119.232 5.22018 119.143 5.25662C119.053 5.29307 118.973 5.34807 118.907 5.41794C118.777 5.56952 118.706 5.76236 118.706 5.9618H116.734C116.727 5.32095 116.96 4.70068 117.387 4.22197C117.595 3.98164 117.855 3.79028 118.146 3.66152C118.438 3.53276 118.754 3.46978 119.072 3.47707H122.134C122.443 3.46988 122.75 3.53215 123.032 3.6593C123.314 3.78645 123.564 3.97522 123.763 4.21166C124.178 4.68168 124.4 5.29143 124.383 5.91798V14.6661H122.467V14.2202C122.125 14.5133 121.694 14.6815 121.244 14.697H119.364C118.689 14.7046 118.032 14.4777 117.505 14.0552C117.237 13.8643 117.017 13.613 116.863 13.3214C116.71 13.0299 116.627 12.7065 116.622 12.3772V10.1889C116.624 9.85504 116.705 9.52623 116.858 9.22957C117.012 8.93292 117.233 8.67691 117.505 8.48261C118.03 8.05623 118.687 7.82565 119.364 7.8305H121.589C121.895 7.83134 122.194 7.92089 122.449 8.08825V6.168ZM122.413 11.988V10.573C122.418 10.3036 122.326 10.0413 122.155 9.83323C122.067 9.73061 121.956 9.64973 121.832 9.59696C121.707 9.54419 121.572 9.52095 121.437 9.52909H119.501C119.368 9.51786 119.235 9.53978 119.113 9.59288C118.991 9.64597 118.884 9.72857 118.801 9.83323C118.65 10.0498 118.573 10.3093 118.582 10.573V11.9932C118.573 12.2561 118.65 12.5147 118.801 12.7304C118.883 12.8356 118.99 12.9186 119.112 12.9717C119.234 13.0249 119.368 13.0465 119.501 13.0345H121.45C121.585 13.0433 121.72 13.0203 121.845 12.9675C121.97 12.9147 122.08 12.8335 122.168 12.7304C122.336 12.5201 122.423 12.2568 122.413 11.988V11.988Z" fill="black"/>
<path d="M129.768 3.48997C130.216 3.48344 130.657 3.60219 131.041 3.83278V0.0876465H133.015V14.6094H131.208V14.0707C130.727 14.4254 130.144 14.6144 129.546 14.6094H128.743C128.304 14.6277 127.866 14.55 127.46 14.3817C127.055 14.2134 126.691 13.9586 126.394 13.6351C125.811 12.9728 125.506 12.1112 125.544 11.2303V6.87941C125.544 5.28307 126.084 4.2366 127.163 3.73999C127.591 3.55973 128.052 3.47188 128.516 3.48224L129.768 3.48997ZM131.041 12.0783V5.9747C131.048 5.87673 131.032 5.77839 130.992 5.68844C130.952 5.59849 130.891 5.51973 130.813 5.4592C130.613 5.289 130.363 5.18855 130.101 5.17309H128.872C128.084 5.17309 127.641 5.54769 127.543 6.29689C127.511 6.53615 127.495 6.77726 127.496 7.0186V11.1968C127.496 11.7922 127.561 12.1865 127.69 12.3773C127.92 12.7433 128.314 12.9263 128.872 12.9263H129.858C130.061 12.9283 130.261 12.8827 130.443 12.7931C130.624 12.7036 130.782 12.5726 130.904 12.4108C130.986 12.3186 131.034 12.2014 131.041 12.0783V12.0783Z" fill="black"/>
<path d="M67.5339 18.3313C67.8773 18.3313 68.0735 18.5221 68.1174 18.9035V20.2207H64.7097V32.9665H62.6109V20.2207H59.2161V18.9035C59.2136 18.826 59.2283 18.7488 59.2591 18.6775C59.2899 18.6062 59.336 18.5426 59.3942 18.4911C59.508 18.3863 59.6577 18.3291 59.8124 18.3313H67.5339Z" fill="black"/>
<path d="M76.2261 30.5616C76.2244 30.8905 76.1469 31.2145 75.9996 31.5086C75.8523 31.8027 75.6392 32.059 75.3768 32.2577C74.8673 32.6864 74.2204 32.9179 73.5542 32.9098H72.0749C71.3996 32.9173 70.7426 32.6905 70.2162 32.268C69.9439 32.074 69.7218 31.818 69.5683 31.5213C69.4148 31.2246 69.3342 30.8956 69.3333 30.5616V24.1178C69.3346 23.7839 69.4154 23.4551 69.5689 23.1585C69.7224 22.8618 69.9442 22.6058 70.2162 22.4115C70.7411 21.9851 71.3983 21.7546 72.0749 21.7594H73.5542C74.2211 21.7576 74.8671 21.9923 75.3768 22.4218C75.6404 22.6194 75.8544 22.8755 76.0018 23.1698C76.1492 23.4642 76.226 23.7887 76.2261 24.1178V30.5616ZM74.2641 30.1853V24.5148C74.2727 24.247 74.1857 23.9848 74.0189 23.775C73.9309 23.6724 73.8203 23.5915 73.6958 23.5388C73.5713 23.486 73.4362 23.4628 73.3012 23.4709H72.2118C72.0791 23.4599 71.9457 23.4819 71.8236 23.535C71.7015 23.5881 71.5945 23.6705 71.5122 23.775C71.3632 23.9924 71.2872 24.2515 71.2953 24.5148V30.1853C71.2872 30.4478 71.3632 30.7061 71.5122 30.9225C71.5942 31.0273 71.7011 31.1101 71.8233 31.1632C71.9455 31.2163 72.079 31.2381 72.2118 31.2266H73.3012C73.4363 31.2354 73.5716 31.2124 73.6962 31.1596C73.8208 31.1068 73.9313 31.0256 74.0189 30.9225C74.1856 30.7136 74.2725 30.4523 74.2641 30.1853V30.1853Z" fill="black"/>
<path d="M83.9114 22.6023C84.0472 22.3596 84.2453 22.1574 84.4853 22.0165C84.7253 21.8756 84.9986 21.8011 85.2771 21.8007H87.4559C87.7713 21.7954 88.0846 21.8523 88.3778 21.9682C88.6711 22.0841 88.9386 22.2566 89.1649 22.476C89.4019 22.6869 89.5904 22.9465 89.7174 23.2371C89.8445 23.5276 89.907 23.8422 89.9007 24.1591V32.9562H87.9283V24.538C87.9326 24.2687 87.8411 24.0066 87.6702 23.7982C87.5826 23.696 87.4724 23.6155 87.3483 23.5631C87.2242 23.5108 87.0895 23.488 86.9551 23.4967H85.3932C85.0112 23.4967 84.7633 23.7596 84.6497 24.2854C84.6205 24.4096 84.605 24.5367 84.6033 24.6643V32.9562H82.631V24.355C82.6336 24.1727 82.575 23.9947 82.4646 23.8494C82.3542 23.7042 82.1983 23.6 82.0217 23.5534C81.9111 23.5158 81.7951 23.4966 81.6784 23.4967H80.0029C79.5434 23.4967 79.3136 24.0345 79.3136 25.1102V32.9562H77.3413V21.8007H79.0968V22.4889C79.2282 22.2819 79.4091 22.1106 79.6231 21.9905C79.8371 21.8704 80.0776 21.8052 80.323 21.8007H82.3883C82.6905 21.788 82.9906 21.8555 83.2582 21.9963C83.5257 22.1371 83.7511 22.3462 83.9114 22.6023V22.6023Z" fill="black"/>
<path d="M96.9199 24.4684C96.9199 23.8292 96.6101 23.507 95.9906 23.507H93.9021C93.8034 23.5018 93.7048 23.518 93.613 23.5545C93.5212 23.5909 93.4384 23.6469 93.3703 23.7183C93.2404 23.8699 93.169 24.0628 93.1689 24.2622H91.1966C91.1916 23.6216 91.4242 23.0018 91.8497 22.5224C92.0586 22.2822 92.318 22.0909 92.6094 21.9622C92.9007 21.8334 93.2169 21.7704 93.5355 21.7775H96.5998C96.9089 21.77 97.2157 21.8318 97.4977 21.9585C97.7796 22.0852 98.0294 22.2735 98.2288 22.5095C98.6436 22.9808 98.8649 23.5912 98.8484 24.2184V32.9665H96.9302V32.5206C96.5912 32.814 96.1626 32.9839 95.7143 33.0026H93.8349C93.1596 33.0101 92.5026 32.7833 91.9762 32.3608C91.705 32.1681 91.4836 31.9138 91.3301 31.619C91.1766 31.3241 91.0954 30.9971 91.0933 30.6648V28.4893C91.0947 28.1554 91.1754 27.8266 91.3289 27.53C91.4824 27.2333 91.7042 26.9773 91.9762 26.783C92.5011 26.3566 93.1583 26.1261 93.8349 26.1309H96.0603C96.3656 26.1328 96.664 26.2222 96.9199 26.3887V24.4684ZM96.8864 30.2884V28.8734C96.891 28.604 96.7995 28.3418 96.6282 28.1336C96.5403 28.031 96.4297 27.9501 96.3052 27.8974C96.1806 27.8446 96.0456 27.8214 95.9105 27.8295H93.9614C93.8287 27.8185 93.6954 27.8405 93.5733 27.8936C93.4512 27.9467 93.3442 28.0291 93.2618 28.1336C93.1128 28.351 93.0369 28.6101 93.045 28.8734V30.2936C93.0369 30.5561 93.1129 30.8143 93.2618 31.0308C93.3439 31.1356 93.4508 31.2183 93.573 31.2715C93.6952 31.3246 93.8287 31.3464 93.9614 31.3349H95.9312C96.0663 31.3437 96.2016 31.3207 96.3262 31.2679C96.4508 31.2151 96.5613 31.1339 96.6489 31.0308C96.814 30.8194 96.8982 30.5562 96.8864 30.2884V30.2884Z" fill="black"/>
<path d="M105.155 23.4967H103.999C103.033 23.4967 102.406 23.8403 102.117 24.5277C102.012 24.7855 101.962 25.0616 101.967 25.3396V32.9562H100.005V22.8085C99.6694 22.8085 99.4886 22.6822 99.4886 22.4296V21.7672H101.75V22.7982C101.859 22.4907 102.063 22.2261 102.334 22.043C102.597 21.8506 102.914 21.7459 103.24 21.744H105.155V23.4967Z" fill="black"/>
<path d="M112.177 24.4684C112.177 23.8292 111.867 23.507 111.248 23.507H109.159C109.06 23.5013 108.962 23.5172 108.87 23.5537C108.778 23.5902 108.695 23.6464 108.627 23.7183C108.498 23.8699 108.426 24.0628 108.426 24.2622H106.451C106.447 23.6213 106.681 23.0016 107.107 22.5224C107.316 22.282 107.575 22.0907 107.866 21.9619C108.158 21.8332 108.474 21.7702 108.793 21.7775H111.854C112.163 21.77 112.47 21.8318 112.752 21.9585C113.034 22.0852 113.284 22.2735 113.483 22.5095C113.898 22.9808 114.119 23.5911 114.103 24.2184V32.9665H112.195V32.5206C111.856 32.814 111.427 32.9839 110.979 33.0026H109.097C108.423 33.0095 107.767 32.7827 107.241 32.3608C106.97 32.1684 106.748 31.9142 106.594 31.6193C106.441 31.3243 106.36 30.9971 106.358 30.6648V28.4893C106.359 28.1553 106.439 27.8263 106.593 27.5295C106.746 27.2328 106.969 26.9769 107.241 26.783C107.765 26.357 108.421 26.1264 109.097 26.1309H111.323C111.629 26.1324 111.928 26.2219 112.185 26.3886L112.177 24.4684ZM112.141 30.2884V28.8734C112.146 28.604 112.054 28.3417 111.883 28.1336C111.795 28.031 111.684 27.9501 111.56 27.8974C111.435 27.8446 111.3 27.8213 111.165 27.8295H109.216C109.083 27.8183 108.95 27.8402 108.828 27.8933C108.706 27.9464 108.599 28.029 108.516 28.1336C108.375 28.3533 108.307 28.6125 108.323 28.8734V30.2936C108.314 30.5565 108.391 30.8151 108.542 31.0308C108.624 31.136 108.731 31.219 108.853 31.2721C108.975 31.3252 109.109 31.3468 109.242 31.3349H111.191C111.326 31.3436 111.461 31.3207 111.586 31.2679C111.71 31.2151 111.821 31.1339 111.909 31.0308C112.072 30.8187 112.154 30.5556 112.141 30.2884V30.2884Z" fill="black"/>
<path d="M122.684 30.4019C122.66 31.5531 122.212 32.3393 121.342 32.7603C121.028 32.9034 120.687 32.9739 120.343 32.9665H117.616C117.296 32.9737 116.979 32.9107 116.686 32.782C116.392 32.6533 116.131 32.462 115.92 32.2216C115.478 31.7471 115.24 31.1192 115.254 30.4714V24.2184C115.237 23.5888 115.448 22.9741 115.851 22.4889C116.051 22.2462 116.304 22.052 116.59 21.9208C116.876 21.7895 117.188 21.7247 117.503 21.7311H120.415C120.736 21.724 121.053 21.7944 121.341 21.9362C121.629 22.078 121.878 22.2871 122.067 22.5456C122.462 23.056 122.669 23.6868 122.653 24.3318V25.8216C122.673 26.4311 122.482 27.0289 122.114 27.515C121.93 27.7578 121.69 27.9525 121.414 28.0822C121.139 28.212 120.835 28.273 120.531 28.2599H117.175V30.3219C117.175 30.9337 117.485 31.2395 118.104 31.2395H119.849C120.079 31.2502 120.304 31.1696 120.474 31.0153C120.556 30.9345 120.618 30.8366 120.657 30.7287C120.696 30.6208 120.71 30.5056 120.699 30.3915L122.684 30.4019ZM118.117 23.507C117.498 23.507 117.188 23.8292 117.188 24.4684V26.5665H119.702C119.971 26.5712 120.233 26.4798 120.441 26.3087C120.544 26.2213 120.625 26.111 120.678 25.9866C120.731 25.8621 120.754 25.7271 120.745 25.5922V24.4143C120.757 24.2817 120.736 24.1482 120.682 24.0261C120.629 23.9041 120.546 23.7973 120.441 23.7158C120.225 23.5651 119.966 23.4883 119.702 23.4967L118.117 23.507Z" fill="black"/>
<path d="M124.669 18.4576C125.509 18.4576 125.929 18.8872 125.929 19.7464C125.929 20.6056 125.509 21.0351 124.669 21.0351C124.496 21.047 124.322 21.0231 124.158 20.965C123.994 20.9069 123.844 20.8159 123.717 20.6975C123.6 20.5683 123.511 20.4172 123.453 20.2529C123.396 20.0887 123.372 19.9147 123.384 19.7412C123.362 19.5669 123.381 19.39 123.438 19.224C123.496 19.0579 123.59 18.9071 123.715 18.7829C123.839 18.6588 123.99 18.5645 124.156 18.5072C124.323 18.4499 124.5 18.4312 124.674 18.4525L124.669 18.4576ZM125.632 32.9098H123.657V21.7775H125.632V32.9098Z" fill="black"/>
</g>
<defs>
<clipPath id="clip0">
<rect width="133" height="33" fill="white"/>
</clipPath>
</defs>
</svg>
