<svg width="32" height="32" viewBox="0 0 32 32" fill="none" xmlns="http://www.w3.org/2000/svg">
<path d="M28.9467 27.0533L24 22.1467C25.9202 19.7525 26.85 16.7137 26.5984 13.6551C26.3468 10.5964 24.9329 7.75037 22.6474 5.70219C20.3619 3.654 17.3784 2.55934 14.3106 2.64329C11.2427 2.72724 8.32365 3.98341 6.15355 6.15352C3.98344 8.32362 2.72727 11.2427 2.64332 14.3106C2.55937 17.3784 3.65403 20.3618 5.70222 22.6474C7.7504 24.9329 10.5964 26.3468 13.6551 26.5984C16.7138 26.85 19.7526 25.9201 22.1467 24L27.0534 28.9067C27.1773 29.0316 27.3248 29.1308 27.4873 29.1985C27.6497 29.2662 27.824 29.3011 28 29.3011C28.176 29.3011 28.3503 29.2662 28.5128 29.1985C28.6753 29.1308 28.8227 29.0316 28.9467 28.9067C29.187 28.658 29.3213 28.3258 29.3213 27.98C29.3213 27.6342 29.187 27.302 28.9467 27.0533ZM14.6667 24C12.8207 24 11.0162 23.4526 9.48137 22.427C7.94651 21.4015 6.75023 19.9438 6.04382 18.2384C5.3374 16.5329 5.15257 14.6563 5.5127 12.8458C5.87282 11.0353 6.76174 9.37229 8.06703 8.067C9.37232 6.76171 11.0354 5.87279 12.8458 5.51267C14.6563 5.15254 16.533 5.33737 18.2384 6.04379C19.9438 6.7502 21.4015 7.94648 22.4271 9.48134C23.4526 11.0162 24 12.8207 24 14.6667C24 17.142 23.0167 19.516 21.2664 21.2663C19.516 23.0167 17.142 24 14.6667 24Z" fill="black"/>
</svg>
