<svg width="32" height="32" viewBox="0 0 32 32" fill="none" xmlns="http://www.w3.org/2000/svg">
<path d="M9.33332 10.6667H28C28.8 10.6667 29.3333 10.1333 29.3333 9.33333C29.3333 8.53333 28.8 8 28 8H9.33332C8.53332 8 7.99999 8.53333 7.99999 9.33333C7.99999 10.1333 8.53332 10.6667 9.33332 10.6667ZM28 14.6667H9.33332C8.53332 14.6667 7.99999 15.2 7.99999 16C7.99999 16.8 8.53332 17.3333 9.33332 17.3333H28C28.8 17.3333 29.3333 16.8 29.3333 16C29.3333 15.2 28.8 14.6667 28 14.6667ZM28 21.3333H9.33332C8.53332 21.3333 7.99999 21.8667 7.99999 22.6667C7.99999 23.4667 8.53332 24 9.33332 24H28C28.8 24 29.3333 23.4667 29.3333 22.6667C29.3333 21.8667 28.8 21.3333 28 21.3333ZM4.93332 8.4C4.79999 8.26667 4.66666 8.13333 4.53332 8.13333C3.99999 7.86667 3.46666 8 3.06666 8.4C2.93332 8.53333 2.79999 8.66667 2.79999 8.8C2.66666 9.2 2.66666 9.46667 2.79999 9.86667C2.93332 10 2.93332 10.1333 3.06666 10.2667C3.19999 10.4 3.33332 10.5333 3.46666 10.5333C3.59999 10.6667 3.86666 10.6667 3.99999 10.6667C4.39999 10.6667 4.66666 10.5333 4.93332 10.2667C5.06666 10.1333 5.19999 10 5.19999 9.86667C5.33332 9.46667 5.33332 9.2 5.19999 8.8C5.19999 8.66667 5.06666 8.53333 4.93332 8.4ZM4.93332 15.0667C4.53332 14.6667 3.99999 14.5333 3.46666 14.8C3.33332 14.9333 3.19999 14.9333 3.06666 15.0667C2.93332 15.2 2.79999 15.3333 2.79999 15.4667C2.66666 15.7333 2.66666 16.1333 2.79999 16.5333C2.93332 16.6667 2.93332 16.8 3.06666 16.9333C3.19999 17.0667 3.33332 17.2 3.46666 17.2C3.59999 17.3333 3.86666 17.3333 3.99999 17.3333C4.13332 17.3333 4.39999 17.3333 4.53332 17.2C4.66666 17.0667 4.79999 17.0667 4.93332 16.9333C5.06666 16.8 5.19999 16.6667 5.19999 16.5333C5.33332 16.2667 5.33332 15.8667 5.19999 15.4667C5.19999 15.3333 5.06666 15.2 4.93332 15.0667ZM4.93332 21.7333C4.79999 21.6 4.66666 21.4667 4.53332 21.4667C4.26666 21.3333 3.86666 21.3333 3.46666 21.4667C3.33332 21.4667 3.19999 21.6 3.06666 21.7333C2.93332 21.8667 2.79999 22 2.79999 22.1333C2.53332 22.6667 2.66666 23.2 3.06666 23.6C3.19999 23.7333 3.33332 23.8667 3.46666 23.8667C3.59999 24 3.86666 24 3.99999 24C4.13332 24 4.39999 24 4.53332 23.8667C4.66666 23.7333 4.79999 23.7333 4.93332 23.6C5.33332 23.2 5.46666 22.6667 5.19999 22.1333C5.19999 22 5.06666 21.8667 4.93332 21.7333Z" fill="black"/>
</svg>
