<svg width="32" height="32" viewBox="0 0 32 32" fill="none" xmlns="http://www.w3.org/2000/svg">
<path d="M3.99996 9.33332H28C28.3536 9.33332 28.6927 9.19285 28.9428 8.9428C29.1928 8.69275 29.3333 8.35361 29.3333 7.99999C29.3333 7.64637 29.1928 7.30723 28.9428 7.05718C28.6927 6.80713 28.3536 6.66666 28 6.66666H3.99996C3.64634 6.66666 3.3072 6.80713 3.05715 7.05718C2.8071 7.30723 2.66663 7.64637 2.66663 7.99999C2.66663 8.35361 2.8071 8.69275 3.05715 8.9428C3.3072 9.19285 3.64634 9.33332 3.99996 9.33332V9.33332ZM28 22.6667H3.99996C3.64634 22.6667 3.3072 22.8071 3.05715 23.0572C2.8071 23.3072 2.66663 23.6464 2.66663 24C2.66663 24.3536 2.8071 24.6928 3.05715 24.9428C3.3072 25.1928 3.64634 25.3333 3.99996 25.3333H28C28.3536 25.3333 28.6927 25.1928 28.9428 24.9428C29.1928 24.6928 29.3333 24.3536 29.3333 24C29.3333 23.6464 29.1928 23.3072 28.9428 23.0572C28.6927 22.8071 28.3536 22.6667 28 22.6667ZM28 17.3333H3.99996C3.64634 17.3333 3.3072 17.4738 3.05715 17.7238C2.8071 17.9739 2.66663 18.313 2.66663 18.6667C2.66663 19.0203 2.8071 19.3594 3.05715 19.6095C3.3072 19.8595 3.64634 20 3.99996 20H28C28.3536 20 28.6927 19.8595 28.9428 19.6095C29.1928 19.3594 29.3333 19.0203 29.3333 18.6667C29.3333 18.313 29.1928 17.9739 28.9428 17.7238C28.6927 17.4738 28.3536 17.3333 28 17.3333ZM28 12H3.99996C3.64634 12 3.3072 12.1405 3.05715 12.3905C2.8071 12.6406 2.66663 12.9797 2.66663 13.3333C2.66663 13.6869 2.8071 14.0261 3.05715 14.2761C3.3072 14.5262 3.64634 14.6667 3.99996 14.6667H28C28.3536 14.6667 28.6927 14.5262 28.9428 14.2761C29.1928 14.0261 29.3333 13.6869 29.3333 13.3333C29.3333 12.9797 29.1928 12.6406 28.9428 12.3905C28.6927 12.1405 28.3536 12 28 12Z" fill="black"/>
</svg>
