<svg width="70" height="70" viewBox="0 0 70 70" fill="none" xmlns="http://www.w3.org/2000/svg">
<path d="M55.4167 5.83334H14.5833C12.2627 5.83334 10.0371 6.75522 8.39616 8.39616C6.75522 10.0371 5.83334 12.2627 5.83334 14.5833V55.4167C5.83334 57.7373 6.75522 59.9629 8.39616 61.6039C10.0371 63.2448 12.2627 64.1667 14.5833 64.1667H55.4167C55.8964 64.16 56.3746 64.1112 56.8458 64.0209L57.7209 63.8167H57.925H58.0709L59.15 63.4083L59.5292 63.2042C59.8209 63.0292 60.1417 62.8834 60.4333 62.6792C60.8228 62.3926 61.1931 62.0809 61.5417 61.7458L61.7458 61.4833C62.0322 61.1932 62.2955 60.8811 62.5334 60.55L62.7959 60.1708C62.9996 59.8461 63.1752 59.5046 63.3208 59.15C63.4009 59.0101 63.4692 58.8637 63.525 58.7125C63.6709 58.3625 63.7584 57.9833 63.875 57.6042V57.1667C64.0404 56.5968 64.1383 56.0094 64.1667 55.4167V14.5833C64.1667 12.2627 63.2448 10.0371 61.6039 8.39616C59.9629 6.75522 57.7373 5.83334 55.4167 5.83334ZM14.5833 58.3334C13.8098 58.3334 13.0679 58.0261 12.5209 57.4791C11.974 56.9321 11.6667 56.1902 11.6667 55.4167V42.8458L21.2625 33.2208C21.5337 32.9475 21.8562 32.7305 22.2117 32.5824C22.5671 32.4343 22.9483 32.3581 23.3333 32.3581C23.7184 32.3581 24.0996 32.4343 24.455 32.5824C24.8105 32.7305 25.133 32.9475 25.4042 33.2208L50.4875 58.3334H14.5833ZM58.3334 55.4167C58.3306 55.7763 58.2614 56.1323 58.1292 56.4667C58.0625 56.6089 57.9845 56.7454 57.8959 56.875C57.8178 56.9985 57.73 57.1155 57.6334 57.225L42.0292 41.6208L44.5958 39.0542C44.867 38.7808 45.1896 38.5638 45.545 38.4157C45.9004 38.2677 46.2816 38.1914 46.6667 38.1914C47.0517 38.1914 47.4329 38.2677 47.7884 38.4157C48.1438 38.5638 48.4664 38.7808 48.7375 39.0542L58.3334 48.6792V55.4167ZM58.3334 40.425L52.85 35C51.1809 33.4162 48.9676 32.5333 46.6667 32.5333C44.3657 32.5333 42.1525 33.4162 40.4833 35L37.9167 37.5667L29.5167 29.1667C27.8475 27.5829 25.6343 26.7 23.3333 26.7C21.0324 26.7 18.8192 27.5829 17.15 29.1667L11.6667 34.5917V14.5833C11.6667 13.8098 11.974 13.0679 12.5209 12.5209C13.0679 11.974 13.8098 11.6667 14.5833 11.6667H55.4167C56.1902 11.6667 56.9321 11.974 57.4791 12.5209C58.0261 13.0679 58.3334 13.8098 58.3334 14.5833V40.425ZM39.375 17.5C38.5097 17.5 37.6639 17.7566 36.9444 18.2373C36.2249 18.7181 35.6642 19.4013 35.333 20.2008C35.0019 21.0002 34.9153 21.8799 35.0841 22.7285C35.2529 23.5772 35.6696 24.3568 36.2814 24.9686C36.8933 25.5805 37.6728 25.9971 38.5215 26.1659C39.3702 26.3348 40.2498 26.2481 41.0493 25.917C41.8487 25.5859 42.532 25.0251 43.0127 24.3056C43.4934 23.5862 43.75 22.7403 43.75 21.875C43.75 20.7147 43.2891 19.6019 42.4686 18.7814C41.6481 17.9609 40.5353 17.5 39.375 17.5Z" fill="black"/>
</svg>
